<svg width="512" height="512" viewBox="0 0 512 512" fill="none" xmlns="http://www.w3.org/2000/svg">
  <rect width="512" height="512" rx="100" fill="#3B82F6"/>
  <g transform="translate(80, 120)">
    <!-- Grid representation -->
    <rect x="0" y="0" width="60" height="40" fill="#60A5FA" rx="5"/>
    <rect x="70" y="0" width="60" height="40" fill="#60A5FA" rx="5"/>
    <rect x="140" y="0" width="60" height="40" fill="#60A5FA" rx="5"/>
    <rect x="210" y="0" width="60" height="40" fill="#60A5FA" rx="5"/>
    <rect x="280" y="0" width="60" height="40" fill="#60A5FA" rx="5"/>
    
    <!-- Timing bars -->
    <rect x="0" y="60" width="180" height="30" fill="#10B981" rx="5"/>
    <rect x="70" y="100" width="200" height="30" fill="#F59E0B" rx="5"/>
    <rect x="140" y="140" width="150" height="30" fill="#EF4444" rx="5"/>
    <rect x="0" y="180" width="220" height="30" fill="#8B5CF6" rx="5"/>
    
    <!-- Play button -->
    <circle cx="176" cy="260" r="40" fill="#1F2937"/>
    <path d="M166 245 L166 275 L196 260 Z" fill="#F3F4F6"/>
  </g>
</svg>